<?xml version="1.0" encoding="UTF-8" standalone="no"?><svg xmlns="http://www.w3.org/2000/svg" xmlns:xlink="http://www.w3.org/1999/xlink" contentStyleType="text/css" height="428px" preserveAspectRatio="none" style="width:823px;height:428px;background:#FFFFFF;" version="1.1" viewBox="0 0 823 428" width="823px" zoomAndPan="magnify"><defs/><g><!--MD5=[b3179ce4f793cc951a1964cbf548eaa1]
cluster c--><g id="cluster_c"><path d="M30.9276,44.4348 C43.6603,18.504 65.9826,20.1596 80.0128,43.1325 C95.6162,18.0257 121.2826,11.626 138.9744,40.8669 C156.2367,18.3309 171.4576,14.6883 188.969,40.6099 C206.7447,14.2718 229.2903,15.3542 244.2105,43.5049 C255.7239,12.3974 284.287,12.9557 302.5717,36.2394 C319.5964,11.3971 337.6948,6 357.2388,33.6139 C376.3107,7.879 397.718,12.3716 410.9895,39.5104 C425.8702,6.1103 447.8588,9.442 469.9401,31.9129 C486.9984,8.592 507.9788,15.2276 520.4638,37.0332 C539.7493,7.1533 569.7019,14.0185 583.7797,42.6669 C597.2789,15.6433 618.5429,13.7288 636.7375,37.8003 C655.7658,13.3945 672.433,18.6093 685.4792,43.6921 C705.3419,12.9158 725.7651,10.8764 745.4327,43.8756 C763.6044,19.3389 781.8831,18.6509 799.0823,44.9029 C809.9277,49.2115 811.1616,56.7576 802.2542,64.2968 C811.5661,67.1173 816.3504,75.5313 807.4743,83.338 C815.6713,93.4018 812.8419,102.568 800.5321,106.4802 C811.5772,113.0936 810.3661,119.8988 801.0077,126.9854 C784.6801,161.4626 763.5851,159.0172 741.1912,132.9821 C723.8307,160.8537 700.4681,161.0419 685.637,130.5734 C673.5788,155.2246 648.1698,159.8295 633.2243,133.5443 C616.3771,157.0565 596.3135,161.6571 578.6395,134.4337 C558.982,156.3697 542.6963,162.0098 525.3224,132.0858 C507.3482,158.0336 488.3928,159.3282 468.5363,134.1776 C455.9791,163.2279 431.4326,166.8347 412.6043,140.5122 C395.3173,170.3381 370.6231,168.8543 355.7465,138.2445 C339.4575,163.321 322.625,162.6162 305.2708,139.3568 C288.0289,168.0217 260.8393,161.8427 245.5721,137.1476 C228.9118,158.1144 209.1543,157.4904 195.009,134.2698 C172.6851,157.1211 154.4678,158.9495 138.4251,127.7004 C120.5383,155.7615 104.8457,154.9106 86.6701,127.9721 C64.5296,154.4864 45.9099,154.0742 25.6121,125.9143 C13.6221,121.6864 10.4294,112.7843 21.1554,103.9475 C11.0957,101.4453 10.3646,93.2543 17.6579,87.1408 C6,78.2715 9.2837,68.3968 21.7729,63.7812 C14.9965,52.546 19.4312,47.0234 30.9276,44.4348 " fill="none" style="stroke:#181818;stroke-width:1.0;"/><text fill="#000000" font-family="sans-serif" font-size="14" font-weight="bold" lengthAdjust="spacing" textLength="41" x="388.3141" y="60.4621">Cloud</text></g><!--MD5=[7d5b7a043f719aecbb2b6aef684728b3]
cluster fog--><g id="cluster_fog"><path d="M70.9311,211.3073 C79.4064,200.9833 88.2825,201.2665 96.2813,211.8841 C103.3308,199.873 115.5566,198.9491 122.6175,211.8721 C130.026,199.5826 142.9104,199.2146 150.7284,211.4018 C157.2227,199.8424 168.5313,198.5925 176.2507,210.0429 C181.5475,194.6834 191.935,196.1109 202.0509,204.8926 C211.5889,191.3681 219.6225,194.8514 228.3055,205.8095 C235.2947,190.0545 245.933,191.5503 255.5246,203.2273 C266.5784,192.0717 275.2059,191.3463 282.1572,207.2631 C291.2045,195.2501 301.0233,195.0489 307.5365,209.6773 C315.4862,197.1865 323.6061,196.3285 332.4453,208.7894 C340.902,197.6977 348.751,195.5772 357.8606,208.0861 C365.2776,197.4991 375.1348,199.0401 381.7461,209.0216 C391.0932,196.632 404.3002,195.5211 412.3143,210.5099 C424.0413,197.0237 435.7167,200.9808 440.8141,216.9289 C443.1552,215.9062 444.5762,216.9579 444.2581,219.4988 C462.7234,229.8237 463.5392,240.8456 447.6719,254.5174 C464.2522,275.2329 457.103,287.2321 433.8141,293.9289 C435.8327,293.9893 436.8433,294.6412 436.0848,296.856 C428.7564,307.5297 417.8428,307.9169 410.1514,297.298 C401.4637,310.2301 390.0654,309.2342 382.3911,296.2139 C377.8592,309.5292 366.7864,309.9731 358.3222,300.3377 C351.1895,311.547 339.8489,311.0311 334.2748,298.7426 C325.9568,312.8249 313.9122,314.5733 305.0253,299.3096 C297.8702,310.4652 287.6022,309.2908 282.1283,297.623 C273.6765,311.5704 263.2708,313.9008 253.355,299.0877 C246.5267,309.346 234.7341,308.4586 228.7181,298.1162 C223.0576,310.1352 212.1757,312.7903 203.7816,300.9763 C194.264,316.1055 179.7862,314.8836 173.3486,298.0441 C164.2575,308.3941 155.7104,309.5959 147.1933,297.3788 C140.0179,308.2514 132.6979,306.9903 125.5835,297.3146 C117.5657,310.7337 105.5907,309.045 97.889,296.9712 C83.4095,308.9711 66.7959,309.0478 61.8141,286.9289 C64.2358,286.4672 65.2537,287.3523 64.6184,289.8377 C50.2134,281.8811 48.2228,264.9295 63.2245,255.7698 C39.9753,241.2948 47.7785,219.0041 68.8141,209.9289 C70.1033,209.4058 71.0097,209.7296 70.9311,211.3073 " fill="none" style="stroke:#181818;stroke-width:1.0;"/><text fill="#000000" font-family="sans-serif" font-size="14" font-weight="bold" lengthAdjust="spacing" textLength="27" x="237.8141" y="229.4621">Fog</text></g><!--MD5=[feb13187a4e12c0f7e43ab86a34517b0]
entity vm--><g id="elem_vm"><rect fill="#F1F1F1" height="47.6094" rx="2.5" ry="2.5" style="stroke:#181818;stroke-width:0.5;" width="139" x="154.3141" y="68.9289"/><rect fill="#F1F1F1" height="10" style="stroke:#181818;stroke-width:0.5;" width="15" x="273.3141" y="73.9289"/><rect fill="#F1F1F1" height="2" style="stroke:#181818;stroke-width:0.5;" width="4" x="271.3141" y="75.9289"/><rect fill="#F1F1F1" height="2" style="stroke:#181818;stroke-width:0.5;" width="4" x="271.3141" y="79.9289"/><text fill="#000000" font-family="sans-serif" font-size="14" lengthAdjust="spacing" textLength="99" x="169.3141" y="103.4621">Visitor Manager</text></g><!--MD5=[75390d3fefe5b03c70cb446d957a6395]
entity planner--><g id="elem_planner"><rect fill="#F1F1F1" height="47.6094" rx="2.5" ry="2.5" style="stroke:#181818;stroke-width:0.5;" width="89" x="30.3141" y="68.9289"/><rect fill="#F1F1F1" height="10" style="stroke:#181818;stroke-width:0.5;" width="15" x="99.3141" y="73.9289"/><rect fill="#F1F1F1" height="2" style="stroke:#181818;stroke-width:0.5;" width="4" x="97.3141" y="75.9289"/><rect fill="#F1F1F1" height="2" style="stroke:#181818;stroke-width:0.5;" width="4" x="97.3141" y="79.9289"/><text fill="#000000" font-family="sans-serif" font-size="14" lengthAdjust="spacing" textLength="49" x="45.3141" y="103.4621">Planner</text></g><!--MD5=[1da348eb3a8ab0eed730e1defa8ec0b1]
entity ml--><g id="elem_ml"><rect fill="#F1F1F1" height="47.6094" rx="2.5" ry="2.5" style="stroke:#181818;stroke-width:0.5;" width="236" x="551.8141" y="68.9289"/><rect fill="#F1F1F1" height="10" style="stroke:#181818;stroke-width:0.5;" width="15" x="767.8141" y="73.9289"/><rect fill="#F1F1F1" height="2" style="stroke:#181818;stroke-width:0.5;" width="4" x="765.8141" y="75.9289"/><rect fill="#F1F1F1" height="2" style="stroke:#181818;stroke-width:0.5;" width="4" x="765.8141" y="79.9289"/><text fill="#000000" font-family="sans-serif" font-size="14" lengthAdjust="spacing" textLength="196" x="566.8141" y="103.4621">ML Recommendation Algorithm</text></g><!--MD5=[d0eb881447e4fde111ec32ea5381d92d]
entity vqs--><g id="elem_vqs"><rect fill="#F1F1F1" height="47.6094" rx="2.5" ry="2.5" style="stroke:#181818;stroke-width:0.5;" width="188" x="328.8141" y="68.9289"/><rect fill="#F1F1F1" height="10" style="stroke:#181818;stroke-width:0.5;" width="15" x="496.8141" y="73.9289"/><rect fill="#F1F1F1" height="2" style="stroke:#181818;stroke-width:0.5;" width="4" x="494.8141" y="75.9289"/><rect fill="#F1F1F1" height="2" style="stroke:#181818;stroke-width:0.5;" width="4" x="494.8141" y="79.9289"/><text fill="#000000" font-family="sans-serif" font-size="14" lengthAdjust="spacing" textLength="148" x="343.8141" y="103.4621">Virtual Queuing System</text></g><!--MD5=[66e222155ae022dabc8e2dbd30d40993]
entity rs--><g id="elem_rs"><rect fill="#F1F1F1" height="47.6094" rx="2.5" ry="2.5" style="stroke:#181818;stroke-width:0.5;" width="200" x="232.8141" y="237.9289"/><rect fill="#F1F1F1" height="10" style="stroke:#181818;stroke-width:0.5;" width="15" x="412.8141" y="242.9289"/><rect fill="#F1F1F1" height="2" style="stroke:#181818;stroke-width:0.5;" width="4" x="410.8141" y="244.9289"/><rect fill="#F1F1F1" height="2" style="stroke:#181818;stroke-width:0.5;" width="4" x="410.8141" y="248.9289"/><text fill="#000000" font-family="sans-serif" font-size="14" lengthAdjust="spacing" textLength="160" x="247.8141" y="272.4621">Recommendation System</text></g><!--MD5=[7061a1a8c004955e358db249191eb953]
entity mm--><g id="elem_mm"><rect fill="#F1F1F1" height="47.6094" rx="2.5" ry="2.5" style="stroke:#181818;stroke-width:0.5;" width="127" x="70.3141" y="237.9289"/><rect fill="#F1F1F1" height="10" style="stroke:#181818;stroke-width:0.5;" width="15" x="177.3141" y="242.9289"/><rect fill="#F1F1F1" height="2" style="stroke:#181818;stroke-width:0.5;" width="4" x="175.3141" y="244.9289"/><rect fill="#F1F1F1" height="2" style="stroke:#181818;stroke-width:0.5;" width="4" x="175.3141" y="248.9289"/><text fill="#000000" font-family="sans-serif" font-size="14" lengthAdjust="spacing" textLength="87" x="85.3141" y="272.4621">Map Manager</text></g><!--MD5=[011db1d27274c86691871bc51b12beb8]
entity d--><g id="elem_d"><ellipse cx="232.8141" cy="354.4289" fill="#F1F1F1" rx="8" ry="8" style="stroke:#181818;stroke-width:0.5;"/><path d="M232.8141,362.4289 L232.8141,389.4289 M219.8141,370.4289 L245.8141,370.4289 M232.8141,389.4289 L219.8141,404.4289 M232.8141,389.4289 L245.8141,404.4289 " fill="none" style="stroke:#181818;stroke-width:0.5;"/><text fill="#000000" font-family="sans-serif" font-size="14" lengthAdjust="spacing" textLength="61" x="202.3141" y="420.4621">Wearable</text></g><!--MD5=[45a6ff9eed018912905cbb1c9a391c1a]
reverse link mm to rs--><g id="link_mm_rs"><path d="M202.7741,261.9289 C212.7441,261.9289 222.7141,261.9289 232.6941,261.9289 " fill="none" id="mm-backto-rs" style="stroke:#181818;stroke-width:1.0;stroke-dasharray:7.0,7.0;"/><polygon fill="#181818" points="197.5541,261.9289,206.5541,265.9289,202.5541,261.9289,206.5541,257.9289,197.5541,261.9289" style="stroke:#181818;stroke-width:1.0;"/></g><!--MD5=[5d5519b0417741f6d7fdecb511a729f6]
link ml to rs--><g id="link_ml_rs"><path d="M623.3141,116.9789 C560.5341,148.0789 449.0741,203.3189 383.9841,235.5689 " fill="none" id="ml-to-rs" style="stroke:#181818;stroke-width:1.0;stroke-dasharray:7.0,7.0;"/><polygon fill="#181818" points="379.3841,237.8489,389.2234,237.4143,383.8591,235.6186,385.6548,230.2543,379.3841,237.8489" style="stroke:#181818;stroke-width:1.0;"/></g><!--MD5=[f4941b195ba066aba1cf8e3c71cfe7c0]
reverse link vqs to rs--><g id="link_vqs_rs"><path d="M407.7941,121.7989 C390.2541,154.3489 361.5541,207.5989 345.2241,237.9089 " fill="none" id="vqs-backto-rs" style="stroke:#181818;stroke-width:1.0;stroke-dasharray:7.0,7.0;"/><polygon fill="#181818" points="410.3041,117.1489,402.513,123.1738,407.9319,121.5504,409.5553,126.9693,410.3041,117.1489" style="stroke:#181818;stroke-width:1.0;"/></g><!--MD5=[2e53647a5042ad39f43e12d629979e8c]
reverse link vm to rs--><g id="link_vm_rs"><path d="M241.7441,121.3989 C262.9641,153.9089 297.9241,207.4689 317.7841,237.9089 " fill="none" id="vm-backto-rs" style="stroke:#181818;stroke-width:1.0;stroke-dasharray:7.0,7.0;"/><polygon fill="#181818" points="238.9741,117.1489,240.5381,126.8728,241.7046,121.3375,247.2399,122.5041,238.9741,117.1489" style="stroke:#181818;stroke-width:1.0;"/></g><!--MD5=[a4d4d60cf3e130d73f3c29504de015bd]
link planner to vm--><g id="link_planner_vm"><path d="M119.3441,92.9289 C129.1841,92.9289 139.0341,92.9289 148.8841,92.9289 " fill="none" id="planner-to-vm" style="stroke:#181818;stroke-width:1.0;stroke-dasharray:7.0,7.0;"/><polygon fill="#181818" points="154.0241,92.9289,145.0241,88.9289,149.0241,92.9289,145.0241,96.9289,154.0241,92.9289" style="stroke:#181818;stroke-width:1.0;"/></g><!--MD5=[d3cf9b9e65a81ee8ebb0e9fa3d2bff47]
link planner to mm--><g id="link_planner_mm"><path d="M83.0141,117.1489 C93.7141,147.4389 112.4241,200.3789 123.9041,232.8689 " fill="none" id="planner-to-mm" style="stroke:#181818;stroke-width:1.0;stroke-dasharray:7.0,7.0;"/><polygon fill="#181818" points="125.6841,237.9089,126.4467,228.0896,124.0133,233.1964,118.9066,230.763,125.6841,237.9089" style="stroke:#181818;stroke-width:1.0;"/></g><!--MD5=[6a4b31e5ae030109f87be4ed6f22abc5]
link rs to d--><g id="link_rs_d"><path d="M313.7741,285.9689 C300.5941,301.9089 282.7041,323.5589 267.0841,342.4589 " fill="none" id="rs-to-d" style="stroke:#181818;stroke-width:1.0;stroke-dasharray:7.0,7.0;"/><polygon fill="#181818" points="263.5841,346.6989,272.3995,342.307,266.7682,342.8438,266.2313,337.2125,263.5841,346.6989" style="stroke:#181818;stroke-width:1.0;"/></g><!--MD5=[2c9a5b38d2010532170d38409d894620]
link mm to d--><g id="link_mm_d"><path d="M156.0241,290.0689 C168.6141,305.4689 184.6341,325.0489 198.7841,342.3389 " fill="none" id="mm-d" style="stroke:#181818;stroke-width:1.0;stroke-dasharray:7.0,7.0;"/><polygon fill="#181818" points="201.9641,346.2189,199.3379,336.7267,198.7886,342.3568,193.1585,341.8075,201.9641,346.2189" style="stroke:#181818;stroke-width:1.0;"/><polygon fill="#181818" points="152.6641,285.9689,155.2694,295.467,155.8311,289.8381,161.46,290.3998,152.6641,285.9689" style="stroke:#181818;stroke-width:1.0;"/></g><!--MD5=[be252be4792cc3b5530a9f0b4bbb5025]
@startuml deployment
top to bottom direction

cloud "Cloud" as c {
    component "Visitor Manager" as vm
    component "Planner" as planner
    component "ML Recommendation Algorithm" as ml
    component "Virtual Queuing System" as vqs
}

cloud "Fog" as fog {
    component "Recommendation System" as rs
    component "Map Manager" as mm

    mm <.right. rs
}


actor "Wearable" as d

ml .d.> rs

rs .u.> vqs
rs .u.> vm

planner .right.> vm
planner .down..> mm

rs .d.> d

mm <.d.> d
@enduml

PlantUML version 1.2022.7(Mon Aug 22 19:01:30 CEST 2022)
(GPL source distribution)
Java Runtime: OpenJDK Runtime Environment
JVM: OpenJDK 64-Bit Server VM
Default Encoding: Cp1252
Language: en
Country: GB
--></g></svg>