<?xml version="1.0" encoding="UTF-8" standalone="no"?><svg xmlns="http://www.w3.org/2000/svg" xmlns:xlink="http://www.w3.org/1999/xlink" contentStyleType="text/css" height="279px" preserveAspectRatio="none" style="width:508px;height:279px;background:#FFFFFF;" version="1.1" viewBox="0 0 508 279" width="508px" zoomAndPan="magnify"><defs/><g><!--MD5=[72ee43ebcd6b294b38e8464aac6a1ff3]
cluster vm--><g id="cluster_vm"><rect fill="none" height="266" rx="2.5" ry="2.5" style="stroke:#181818;stroke-width:1.0;" width="368" x="134.5" y="7"/><rect fill="none" height="10" style="stroke:#181818;stroke-width:1.0;" width="15" x="482.5" y="12"/><rect fill="none" height="2" style="stroke:#181818;stroke-width:1.0;" width="4" x="480.5" y="14"/><rect fill="none" height="2" style="stroke:#181818;stroke-width:1.0;" width="4" x="480.5" y="18"/><text fill="#000000" font-family="sans-serif" font-size="14" font-weight="bold" lengthAdjust="spacing" textLength="111" x="263" y="34.5332">Visitor Manager</text></g><!--MD5=[6a57aae439892c382099c816ac07b0ea]
entity lm--><g id="elem_lm"><rect fill="#F1F1F1" height="47.6094" rx="2.5" ry="2.5" style="stroke:#181818;stroke-width:0.5;" width="135" x="171.5" y="126"/><rect fill="#F1F1F1" height="10" style="stroke:#181818;stroke-width:0.5;" width="15" x="286.5" y="131"/><rect fill="#F1F1F1" height="2" style="stroke:#181818;stroke-width:0.5;" width="4" x="284.5" y="133"/><rect fill="#F1F1F1" height="2" style="stroke:#181818;stroke-width:0.5;" width="4" x="284.5" y="137"/><text fill="#000000" font-family="sans-serif" font-size="14" lengthAdjust="spacing" textLength="95" x="186.5" y="160.5332">Login Manager</text></g><!--MD5=[dd666d95682ed53f534c4d51d7665f6e]
entity tm--><g id="elem_tm"><rect fill="#F1F1F1" height="47.6094" rx="2.5" ry="2.5" style="stroke:#181818;stroke-width:0.5;" width="145" x="166.5" y="43"/><rect fill="#F1F1F1" height="10" style="stroke:#181818;stroke-width:0.5;" width="15" x="291.5" y="48"/><rect fill="#F1F1F1" height="2" style="stroke:#181818;stroke-width:0.5;" width="4" x="289.5" y="50"/><rect fill="#F1F1F1" height="2" style="stroke:#181818;stroke-width:0.5;" width="4" x="289.5" y="54"/><text fill="#000000" font-family="sans-serif" font-size="14" lengthAdjust="spacing" textLength="105" x="181.5" y="77.5332">Tickets Manager</text></g><!--MD5=[dc7fb56487618d91d540ed1a4700aa4b]
entity pm--><g id="elem_pm"><rect fill="#F1F1F1" height="47.6094" rx="2.5" ry="2.5" style="stroke:#181818;stroke-width:0.5;" width="177" x="150.5" y="209"/><rect fill="#F1F1F1" height="10" style="stroke:#181818;stroke-width:0.5;" width="15" x="307.5" y="214"/><rect fill="#F1F1F1" height="2" style="stroke:#181818;stroke-width:0.5;" width="4" x="305.5" y="216"/><rect fill="#F1F1F1" height="2" style="stroke:#181818;stroke-width:0.5;" width="4" x="305.5" y="220"/><text fill="#000000" font-family="sans-serif" font-size="14" lengthAdjust="spacing" textLength="137" x="165.5" y="243.5332">Preferences Manager</text></g><!--MD5=[9c0500d0f81bc77865a2385b61e3a897]
entity uidb--><g id="elem_uidb"><path d="M387.5,177.5 C387.5,167.5 437,167.5 437,167.5 C437,167.5 486.5,167.5 486.5,177.5 L486.5,204.1094 C486.5,214.1094 437,214.1094 437,214.1094 C437,214.1094 387.5,214.1094 387.5,204.1094 L387.5,177.5 " fill="#F1F1F1" style="stroke:#181818;stroke-width:0.5;"/><path d="M387.5,177.5 C387.5,187.5 437,187.5 437,187.5 C437,187.5 486.5,187.5 486.5,177.5 " fill="none" style="stroke:#181818;stroke-width:0.5;"/><text fill="#000000" font-family="sans-serif" font-size="14" lengthAdjust="spacing" textLength="79" x="397.5" y="206.0332">User Info DB</text></g><!--MD5=[c05ab5538c6eb65f2b2f965ec44bf6fa]
entity tdb--><g id="elem_tdb"><path d="M393,53.5 C393,43.5 437,43.5 437,43.5 C437,43.5 481,43.5 481,53.5 L481,80.1094 C481,90.1094 437,90.1094 437,90.1094 C437,90.1094 393,90.1094 393,80.1094 L393,53.5 " fill="#F1F1F1" style="stroke:#181818;stroke-width:0.5;"/><path d="M393,53.5 C393,63.5 437,63.5 437,63.5 C437,63.5 481,63.5 481,53.5 " fill="none" style="stroke:#181818;stroke-width:0.5;"/><text fill="#000000" font-family="sans-serif" font-size="14" lengthAdjust="spacing" textLength="68" x="403" y="82.0332">Tickets DB</text></g><!--MD5=[db50aaa3a241bc80110f34772743c3cf]
entity pref--><g id="elem_pref"><ellipse cx="44.5" cy="233" fill="#F1F1F1" rx="8" ry="8" style="stroke:#181818;stroke-width:0.5;"/><text fill="#000000" font-family="sans-serif" font-size="14" lengthAdjust="spacing" textLength="77" x="6" y="264.5332">Preferences</text></g><!--MD5=[ee68b029fcf62f887533fbf339f9ee43]
link lm to uidb--><g id="link_lm_uidb"><path d="M306.63,163.94 C333.04,169.46 362.85,175.7 387.2,180.79 " fill="none" id="lm-uidb" style="stroke:#181818;stroke-width:1.0;"/></g><!--MD5=[7f3a7aeddd7be2b45ca9c3798cbcbfe7]
link pm to uidb--><g id="link_pm_uidb"><path d="M327.68,214.21 C348.17,209.82 369.26,205.3 387.33,201.43 " fill="none" id="pm-uidb" style="stroke:#181818;stroke-width:1.0;"/></g><!--MD5=[9e5c89b130a3871dc49001eaa76cb61c]
link tm to tdb--><g id="link_tm_tdb"><path d="M311.59,67 C338.82,67 368.99,67 392.8,67 " fill="none" id="tm-tdb" style="stroke:#181818;stroke-width:1.0;"/></g><!--MD5=[d3f6697d2f33ca396adbd43d182acc74]
reverse link pref to pm--><g id="link_pref_pm"><path d="M59.17,233 C78.45,233 115.21,233 150.41,233 " fill="none" id="pref-backto-pm" style="stroke:#181818;stroke-width:1.0;stroke-dasharray:7.0,7.0;"/><polygon fill="#181818" points="53.77,233,62.77,237,58.77,233,62.77,229,53.77,233" style="stroke:#181818;stroke-width:1.0;"/></g><!--MD5=[8edc2319220b3cf13fa9124fed62954c]
@startuml visitor-manager
left to right direction
component "Visitor Manager" as vm {
    component "Login Manager" as lm
    component "Tickets Manager" as tm
    component "Preferences Manager" as pm
    database "User Info DB" as uidb
    database "Tickets DB" as tdb

    lm - - uidb
    pm - - uidb
    tm - - tdb
}

interface Preferences as pref
pm .up.> pref

@enduml

PlantUML version 1.2022.7(Mon Aug 22 19:01:30 CEST 2022)
(GPL source distribution)
Java Runtime: OpenJDK Runtime Environment
JVM: OpenJDK 64-Bit Server VM
Default Encoding: Cp1252
Language: en
Country: GB
--></g></svg>